<svg aria-hidden="true" style="position: absolute; width: 0; height: 0; overflow: hidden;" version="1.1" xmlns="http://www.w3.org/2000/svg" xmlns:xlink="http://www.w3.org/1999/xlink">
<defs>
<symbol id="logo" viewBox="0 0 76 32">
<path fill="none" stroke="#000" stroke-width="1.6" stroke-miterlimit="4" stroke-linecap="round" stroke-linejoin="round" style="stroke: var(--color1, #000)" d="M8.8 9.943l-8 8 8 8M24.8 9.943l8 8-8 8"></path>
<path fill="#000" style="fill: var(--color1, #000)" d="M19.628 4.034l-6.87 25.637c-0.077 0.281-0.33 0.484-0.631 0.484-0.361 0-0.653-0.292-0.653-0.653 0-0.060 0.008-0.118 0.023-0.173l-0.001 0.005 6.87-25.638c0.077-0.281 0.33-0.484 0.631-0.484 0.361 0 0.653 0.292 0.653 0.653 0 0.060-0.008 0.118-0.023 0.174l0.001-0.005z"></path>
<path fill="#d9d9d9" style="fill: var(--color2, #d9d9d9)" d="M18.366 3.696c0.077-0.281 0.33-0.484 0.631-0.484 0.361 0 0.653 0.292 0.653 0.653 0 0.060-0.008 0.118-0.023 0.174l0.001-0.005-0.837 3.122-1.262-0.338 0.837-3.122z"></path>
<path fill="none" stroke="#000" stroke-width="0.8" stroke-miterlimit="4" stroke-linecap="round" stroke-linejoin="miter" style="stroke: var(--color1, #000)" d="M20.556 5.618l2.523 0.677M14.248 3.928l2.523 0.676M15.717 0.969l1.31 2.248M14.070 7.118l2.258-1.292M20.221 6.869l1.31 2.248M20.92 4.259l2.258-1.291"></path>
<path fill="#000" style="fill: var(--color1, #000)" d="M44.013 12.058c-0.666 0-1.267-0.147-1.805-0.442-0.526-0.291-0.952-0.705-1.249-1.204l-0.008-0.015c-0.284-0.492-0.452-1.082-0.452-1.711 0-0.016 0-0.032 0-0.048l-0 0.002c0-0.646 0.15-1.229 0.451-1.747 0.306-0.52 0.736-0.938 1.25-1.22l0.017-0.008c0.538-0.294 1.139-0.442 1.805-0.442 0.499 0 0.96 0.083 1.382 0.25s0.781 0.41 1.075 0.73l-0.451 0.451c-0.525-0.531-1.187-0.797-1.987-0.797-0.011-0-0.023-0-0.036-0-0.519 0-1.006 0.135-1.428 0.373l0.015-0.008c-0.435 0.243-0.778 0.576-1.027 0.998-0.23 0.397-0.365 0.873-0.365 1.381 0 0.014 0 0.028 0 0.041l-0-0.002c0 0.525 0.122 0.998 0.365 1.421 0.25 0.422 0.592 0.755 1.027 0.998 0.408 0.23 0.895 0.365 1.414 0.365 0.013 0 0.025-0 0.038-0l-0.002 0c0.806 0 1.469-0.269 1.987-0.806l0.451 0.451c-0.294 0.32-0.656 0.566-1.085 0.739-0.399 0.158-0.861 0.25-1.344 0.25-0.014 0-0.027-0-0.041-0l0.002 0zM49.69 12.048c-0.012 0-0.025 0-0.039 0-0.468 0-0.908-0.121-1.289-0.334l0.014 0.007c-0.387-0.222-0.699-0.535-0.915-0.91l-0.006-0.012c-0.212-0.369-0.336-0.811-0.336-1.283 0-0.015 0-0.030 0-0.044l-0 0.002c0-0.493 0.112-0.934 0.336-1.325s0.531-0.694 0.922-0.912c0.368-0.206 0.808-0.327 1.276-0.327 0.014 0 0.028 0 0.041 0l-0.002-0c0.486 0 0.925 0.109 1.315 0.326s0.694 0.522 0.912 0.912c0.224 0.39 0.336 0.832 0.336 1.325s-0.112 0.934-0.336 1.325c-0.217 0.388-0.527 0.701-0.9 0.915l-0.012 0.006c-0.368 0.206-0.808 0.327-1.276 0.327-0.014 0-0.028-0-0.041-0l0.002 0zM49.69 11.443c0.358 0 0.678-0.080 0.96-0.24 0.288-0.166 0.512-0.4 0.672-0.701s0.24-0.643 0.24-1.027-0.080-0.726-0.24-1.027c-0.16-0.301-0.384-0.531-0.672-0.691-0.266-0.157-0.587-0.25-0.929-0.25-0.011 0-0.022 0-0.033 0l0.002-0c-0.358 0-0.682 0.083-0.97 0.25-0.282 0.16-0.506 0.39-0.672 0.691-0.16 0.301-0.24 0.643-0.24 1.027s0.080 0.726 0.24 1.027c0.166 0.301 0.39 0.534 0.672 0.701 0.288 0.16 0.611 0.24 0.97 0.24zM58.252 4.877v7.123h-0.652v-0.998c-0.198 0.33-0.474 0.595-0.805 0.772l-0.011 0.005c-0.317 0.17-0.693 0.269-1.092 0.269-0.014 0-0.028-0-0.043-0l0.002 0c-0.010 0-0.022 0-0.034 0-0.46 0-0.892-0.121-1.265-0.333l0.013 0.007c-0.382-0.217-0.689-0.527-0.896-0.9l-0.006-0.012c-0.218-0.39-0.326-0.835-0.326-1.334s0.109-0.944 0.326-1.334c0.212-0.383 0.519-0.69 0.891-0.896l0.012-0.006c0.361-0.205 0.792-0.327 1.252-0.327 0.012 0 0.024 0 0.036 0l-0.002-0c0.41 0 0.778 0.086 1.104 0.259 0.338 0.172 0.614 0.424 0.811 0.731l0.005 0.008v-3.034h0.682zM55.708 11.443c0.352 0 0.669-0.080 0.95-0.24 0.288-0.166 0.512-0.4 0.672-0.701 0.166-0.301 0.25-0.643 0.25-1.027s-0.083-0.726-0.25-1.027c-0.16-0.301-0.384-0.531-0.672-0.691-0.265-0.157-0.583-0.25-0.923-0.25-0.009 0-0.019 0-0.028 0l0.001-0c-0.358 0-0.682 0.083-0.97 0.25-0.282 0.16-0.506 0.39-0.672 0.691-0.16 0.301-0.24 0.643-0.24 1.027s0.080 0.726 0.24 1.027c0.166 0.301 0.39 0.534 0.672 0.701 0.288 0.16 0.611 0.24 0.97 0.24zM60.15 6.95h0.682v5.050h-0.682v-5.050zM60.496 5.846c-0.003 0-0.007 0-0.011 0-0.135 0-0.256-0.055-0.344-0.144l-0-0c-0.089-0.086-0.144-0.206-0.144-0.339 0-0.002 0-0.004 0-0.006v0c0-0.128 0.048-0.24 0.144-0.336s0.214-0.144 0.355-0.144 0.259 0.048 0.355 0.144c0.096 0.090 0.144 0.198 0.144 0.326 0 0.141-0.048 0.259-0.144 0.355-0.088 0.089-0.209 0.144-0.344 0.144-0.004 0-0.008-0-0.012-0h0.001zM65.302 6.912c0.634 0 1.136 0.186 1.507 0.557 0.378 0.365 0.566 0.899 0.566 1.603v2.928h-0.682v-2.861c0-0.525-0.131-0.925-0.394-1.2s-0.637-0.413-1.123-0.413c-0.544 0-0.976 0.163-1.296 0.49-0.314 0.32-0.47 0.765-0.47 1.334v2.65h-0.682v-5.050h0.653v0.931c0.186-0.307 0.442-0.544 0.768-0.71 0.333-0.173 0.717-0.259 1.152-0.259zM73.919 6.95v4.435c0 0.858-0.211 1.491-0.634 1.901-0.416 0.416-1.046 0.624-1.891 0.624-0.006 0-0.013 0-0.020 0-0.47 0-0.922-0.077-1.344-0.22l0.030 0.009c-0.416-0.134-0.755-0.323-1.018-0.566l0.346-0.518c0.243 0.218 0.538 0.387 0.883 0.509 0.352 0.122 0.72 0.182 1.104 0.182 0.64 0 1.11-0.15 1.411-0.451 0.301-0.294 0.451-0.755 0.451-1.382v-0.643c-0.211 0.32-0.49 0.563-0.835 0.73-0.321 0.158-0.699 0.25-1.098 0.25-0.012 0-0.024-0-0.037-0l0.002 0c-0.010 0-0.022 0-0.033 0-0.461 0-0.896-0.114-1.278-0.315l0.015 0.007c-0.38-0.209-0.689-0.505-0.906-0.863l-0.006-0.011c-0.205-0.356-0.327-0.783-0.327-1.238 0-0.014 0-0.027 0-0.040l-0 0.002c0-0.474 0.109-0.896 0.326-1.267 0.224-0.371 0.528-0.659 0.912-0.864 0.364-0.194 0.796-0.308 1.254-0.308 0.015 0 0.030 0 0.044 0l-0.002-0c0.429 0 0.816 0.086 1.162 0.259s0.624 0.422 0.835 0.749v-0.97h0.653zM71.337 11.203c0.365 0 0.694-0.077 0.989-0.23 0.294-0.16 0.522-0.381 0.682-0.662 0.166-0.282 0.25-0.602 0.25-0.96 0-0.011 0-0.023 0-0.035 0-0.338-0.093-0.653-0.254-0.923l0.005 0.008c-0.16-0.28-0.393-0.504-0.672-0.649l-0.009-0.004c-0.288-0.16-0.618-0.24-0.989-0.24-0.365 0-0.694 0.077-0.989 0.23-0.288 0.154-0.515 0.371-0.682 0.653-0.16 0.282-0.24 0.602-0.24 0.96s0.080 0.678 0.24 0.96c0.166 0.282 0.394 0.502 0.682 0.662 0.294 0.154 0.624 0.23 0.989 0.23zM62.366 18.762c-0.134 0.197-0.284 0.433-0.45 0.708-0.112 0.176-0.288 0.477-0.458 0.783l-0.072 0.14c-0.159 0.285-0.317 0.588-0.473 0.91-0.2 0.386-0.478 0.997-0.74 1.617l-0.090 0.239c-0.077 0.143-0.276 0.637-0.468 1.135l-0.122 0.361c-0.031 0.078-0.088 0.117-0.168 0.117-0.001 0-0.002 0-0.003 0-0.040 0-0.077-0.014-0.106-0.038l0 0c-0.030-0.027-0.051-0.062-0.061-0.102l-0-0.001-0.046-0.197c-0.325-1.591-0.425-2.019-0.527-2.445l0.237 1.175c-0.149-0.722-0.219-1.020-0.291-1.317l0.088 0.431c-0.068-0.31-0.138-0.622-0.21-0.938s-0.139-0.616-0.202-0.9c-0.229 0.656-0.442 1.175-0.679 1.68l0.046-0.11c-0.211 0.462-0.427 0.85-0.669 1.221l0.022-0.035c-0.208 0.318-0.435 0.594-0.688 0.843l-0.001 0.001c-0.215 0.212-0.458 0.395-0.724 0.544l-0.017 0.009c-0.256 0.138-0.526 0.236-0.811 0.296-0.261 0.056-0.561 0.088-0.869 0.088-0.009 0-0.019-0-0.028-0h0.001c-0.162 0-0.336-0.018-0.52-0.056-0.208-0.040-0.392-0.096-0.567-0.171l0.018 0.007c-0.199-0.084-0.37-0.178-0.53-0.287l0.010 0.006c-0.168-0.115-0.313-0.246-0.437-0.395l-0.003-0.003c-0.124-0.15-0.227-0.324-0.301-0.513l-0.005-0.013c-0.071-0.188-0.112-0.405-0.112-0.631 0-0.009 0-0.017 0-0.026v0.001c0-0.253 0.053-0.484 0.159-0.694 0.106-0.213 0.25-0.394 0.432-0.544 0.181-0.153 0.39-0.272 0.627-0.356 0.241-0.085 0.494-0.126 0.76-0.126 0.194 0 0.366 0.017 0.52 0.051 0.156 0.032 0.294 0.072 0.412 0.122s0.221 0.105 0.305 0.165c0.085 0.059 0.155 0.114 0.211 0.164s0.097 0.094 0.122 0.131c0.012 0.020 0.026 0.036 0.042 0.051l0 0c0.017 0.028 0.027 0.062 0.028 0.098v0c-0.001 0.048-0.020 0.091-0.051 0.122l0-0c-0.029 0.034-0.072 0.056-0.12 0.056-0.002 0-0.005-0-0.007-0h0c-0.001 0-0.002 0-0.003 0-0.061 0-0.115-0.032-0.147-0.079l-0-0.001c-0.020-0.022-0.045-0.049-0.069-0.077l-0.006-0.007c-0.066-0.071-0.141-0.132-0.225-0.181l-0.005-0.002c-0.118-0.070-0.255-0.131-0.399-0.174l-0.013-0.003c-0.169-0.051-0.363-0.081-0.564-0.081-0.016 0-0.032 0-0.048 0.001l0.002-0c-0.219 0-0.426 0.034-0.624 0.103-0.194 0.066-0.363 0.16-0.51 0.281-0.144 0.122-0.259 0.267-0.347 0.436-0.080 0.156-0.127 0.339-0.127 0.534 0 0.005 0 0.010 0 0.016v-0.001c0 0.197 0.033 0.376 0.098 0.539s0.154 0.308 0.262 0.436c0.11 0.128 0.235 0.238 0.373 0.329l0.007 0.004c0.144 0.094 0.294 0.172 0.45 0.234 0.157 0.059 0.313 0.104 0.469 0.136 0.16 0.028 0.31 0.042 0.45 0.042 0.238 0 0.469-0.017 0.694-0.051 0.228-0.038 0.451-0.106 0.67-0.206 0.222-0.1 0.439-0.238 0.651-0.412 0.213-0.176 0.424-0.404 0.633-0.685s0.416-0.62 0.619-1.017c0.281-0.536 0.552-1.175 0.774-1.836l0.028-0.096c0.059-0.187 0.12-0.376 0.182-0.567-0.035-0.161-0.076-0.4-0.11-0.641l-0.007-0.061c-0.019-0.143-0.030-0.31-0.033-0.48l-0-0.003c0-0.138 0.010-0.247 0.032-0.328 0.016-0.070 0.045-0.132 0.086-0.184l-0.001 0.001c0.027-0.038 0.065-0.066 0.111-0.080l0.001-0c0.033-0.012 0.071-0.019 0.11-0.019s0.077 0.007 0.112 0.020l-0.002-0.001c0.042 0.013 0.078 0.042 0.109 0.085 0.034 0.041 0.062 0.102 0.085 0.183s0.032 0.19 0.032 0.328c0 0.15-0.014 0.323-0.042 0.52-0.039 0.265-0.083 0.486-0.137 0.703l0.011-0.051c0.040 0.19 0.087 0.403 0.14 0.638 1.411 7.133 1.588 7.897 1.765 8.66l-1.254-6.392 0.16 0.717 0.144 0.618c0.085-0.212 0.188-0.468 0.31-0.768 0.382-0.941 0.678-1.598 0.99-2.246l-0.108 0.25c0.168-0.354 0.34-0.686 0.515-0.999 0.262-0.476 0.487-0.848 0.724-1.211l-0.044 0.073c0.206-0.319 0.384-0.582 0.534-0.788 0.165-0.232 0.327-0.433 0.498-0.625l-0.006 0.007c0.031-0.032 0.075-0.052 0.123-0.052 0.001 0 0.003 0 0.004 0h-0c0.053 0 0.095 0.019 0.126 0.056 0.032 0.030 0.052 0.073 0.052 0.121 0 0.024-0.005 0.048-0.015 0.068l0-0.001c-0.034 0.071-0.099 0.239-0.16 0.408l-0.032 0.099c-0.054 0.153-0.113 0.334-0.178 0.544-0.125 0.374-0.249 0.85-0.347 1.337l-0.014 0.083c-0.064 0.336-0.11 0.732-0.127 1.136l-0.001 0.017c-0.006 0.112-0.010 0.243-0.010 0.375 0 0.225 0.011 0.447 0.031 0.666l-0.002-0.028c0.018 0.21 0.050 0.411 0.094 0.605 0.048 0.21 0.109 0.393 0.186 0.567l-0.008-0.019c0.075 0.169 0.167 0.318 0.277 0.446s0.238 0.231 0.389 0.31c0.153 0.078 0.33 0.12 0.53 0.126 0.049 0.002 0.091 0.027 0.116 0.065l0 0.001c0.032 0.038 0.047 0.078 0.047 0.122-0 0.046-0.020 0.088-0.051 0.118l-0 0c-0.030 0.032-0.073 0.051-0.12 0.051-0.001 0-0.002 0-0.002-0h0c-0.050 0-0.1-0.005-0.15-0.014-0.225-0.032-0.424-0.096-0.595-0.192-0.172-0.1-0.319-0.222-0.444-0.364l-0.002-0.002c-0.122-0.143-0.227-0.306-0.309-0.483l-0.005-0.013c-0.075-0.169-0.143-0.369-0.192-0.576l-0.005-0.024c-0.046-0.186-0.084-0.411-0.106-0.641l-0.002-0.020c-0.017-0.205-0.027-0.444-0.027-0.685 0-0.298 0.015-0.593 0.045-0.884l-0.003 0.037c0.060-0.595 0.158-1.133 0.293-1.655l-0.017 0.075c0.062-0.246 0.126-0.476 0.192-0.688zM67.761 23.492l-0.080 0.16c-0.037 0.078-0.087 0.168-0.15 0.272-0.074 0.127-0.144 0.232-0.219 0.334l0.007-0.010c-0.081 0.112-0.172 0.216-0.272 0.309s-0.208 0.172-0.323 0.234c-0.106 0.056-0.232 0.090-0.365 0.090-0 0-0 0-0 0v0c-0.005 0-0.011 0-0.016 0-0.171 0-0.327-0.066-0.443-0.174l0 0c-0.122-0.117-0.214-0.264-0.265-0.429l-0.002-0.007c-0.106 0.178-0.233 0.32-0.38 0.426-0.121 0.093-0.273 0.15-0.439 0.155l-0.001 0c-0.003 0-0.007 0-0.010 0-0.11 0-0.215-0.023-0.309-0.064l0.005 0.002c-0.094-0.044-0.174-0.104-0.239-0.177l-0.001-0.001c-0.065-0.077-0.117-0.168-0.152-0.266l-0.002-0.006c-0.033-0.098-0.052-0.211-0.052-0.328 0-0.003 0-0.007 0-0.010v0c0-0.244 0.041-0.458 0.122-0.642 0.080-0.182 0.187-0.337 0.318-0.469v0c0.118-0.117 0.258-0.212 0.413-0.278l0.009-0.003c0.157-0.062 0.306-0.094 0.45-0.094 0.097 0 0.186 0.014 0.267 0.042 0.082 0.025 0.15 0.054 0.206 0.085 0.059 0.031 0.104 0.061 0.136 0.089 0.020 0.016 0.036 0.029 0.053 0.044l-0.002-0.001c0.034 0.040 0.052 0.082 0.052 0.126-0 0.049-0.020 0.094-0.052 0.126l0-0c-0.030 0.032-0.073 0.052-0.121 0.052-0 0-0.001 0-0.001 0h0c-0.001 0-0.002 0-0.003 0-0.048 0-0.092-0.020-0.123-0.052l-0-0c-0.013-0.011-0.026-0.021-0.041-0.031l-0.001-0.001c-0.026-0.021-0.055-0.040-0.086-0.056l-0.003-0.001c-0.039-0.019-0.084-0.035-0.132-0.046l-0.004-0.001c-0.050-0.015-0.107-0.024-0.166-0.024-0.003 0-0.005 0-0.008 0h0c-0.097 0-0.2 0.022-0.31 0.066s-0.21 0.112-0.3 0.206c-0.094 0.098-0.172 0.212-0.227 0.339l-0.003 0.007c-0.056 0.136-0.089 0.295-0.089 0.461 0 0.076 0.007 0.15 0.020 0.222l-0.001-0.008c0.013 0.062 0.036 0.117 0.067 0.166l-0.001-0.002c0.032 0.050 0.075 0.091 0.125 0.121l0.002 0.001c0.054 0.032 0.119 0.048 0.197 0.048 0.071-0.004 0.137-0.024 0.194-0.058l-0.002 0.001c0.084-0.044 0.154-0.103 0.21-0.172l0.001-0.001c0.069-0.078 0.13-0.176 0.183-0.296 0.056-0.118 0.095-0.258 0.117-0.421 0.006-0.044 0.029-0.082 0.061-0.108l0-0c0.031-0.029 0.073-0.047 0.12-0.047 0.001 0 0.001 0 0.002 0h-0c0.044 0 0.082 0.018 0.112 0.052 0.031 0.030 0.052 0.071 0.056 0.116l0 0.001 0.019 0.254c0.010 0.106 0.030 0.212 0.061 0.318 0.034 0.106 0.085 0.198 0.15 0.277 0.062 0.072 0.153 0.117 0.255 0.117 0.006 0 0.012-0 0.018-0l-0.001 0c0.081-0.001 0.157-0.023 0.222-0.062l-0.002 0.001c0.075-0.040 0.147-0.094 0.216-0.16 0.072-0.068 0.139-0.144 0.202-0.229 0.114-0.15 0.22-0.319 0.31-0.497l0.008-0.019c0.040-0.081 0.075-0.152 0.103-0.211 0.014-0.033 0.037-0.060 0.065-0.080l0.001-0c0.028-0.017 0.062-0.027 0.098-0.027 0 0 0.001 0 0.001 0h-0c0.001-0 0.003-0 0.005-0 0.050 0 0.094 0.024 0.121 0.061l0 0c0.031 0.031 0.051 0.074 0.052 0.121v0c-0 0.024-0.006 0.046-0.015 0.067l0-0.001zM69.134 25.26c0.587-0.766 0.995-1.402 1.224-1.909 0.025-0.061 0.084-0.102 0.153-0.102 0 0 0.001 0 0.001 0h-0c0.053 0 0.096 0.018 0.131 0.056 0.032 0.030 0.052 0.073 0.052 0.12 0 0.024-0.005 0.047-0.014 0.068l0-0.001c-0.138 0.312-0.333 0.661-0.586 1.046-0.337 0.501-0.653 0.926-0.986 1.336l0.026-0.032c0 0.197 0.002 0.394 0.005 0.59s0.005 0.413 0.005 0.647c0 0.234-0.006 0.466-0.019 0.694-0.010 0.231-0.028 0.45-0.056 0.656-0.029 0.22-0.070 0.415-0.125 0.605l0.007-0.029c-0.044 0.174-0.108 0.328-0.192 0.468l0.004-0.008c-0.069 0.123-0.162 0.225-0.274 0.302l-0.003 0.002c-0.102 0.071-0.228 0.114-0.365 0.114-0.005 0-0.010-0-0.015-0h0.001c-0.008 0-0.017 0.001-0.026 0.001-0.189 0-0.356-0.094-0.456-0.239l-0.001-0.002c-0.112-0.159-0.168-0.386-0.168-0.679 0-0.156 0.014-0.326 0.042-0.511 0.032-0.181 0.075-0.368 0.131-0.562s0.123-0.39 0.202-0.59c0.082-0.197 0.17-0.389 0.267-0.576s0.202-0.368 0.314-0.54c0.115-0.171 0.237-0.328 0.366-0.468 0.003-0.219 0.004-0.436 0.004-0.652 0.003-0.216 0.008-0.414 0.014-0.595-0.091 0.116-0.204 0.21-0.332 0.279l-0.006 0.003c-0.128 0.068-0.256 0.102-0.384 0.102-0.003 0-0.006 0-0.009 0-0.105 0-0.205-0.022-0.295-0.063l0.005 0.002c-0.089-0.045-0.164-0.104-0.224-0.177l-0.001-0.001c-0.062-0.077-0.111-0.168-0.144-0.266l-0.002-0.006c-0.033-0.098-0.052-0.211-0.052-0.328 0-0.003 0-0.007 0-0.010v0c0-0.244 0.041-0.458 0.122-0.642 0.080-0.182 0.187-0.337 0.318-0.469v0c0.118-0.117 0.258-0.212 0.413-0.278l0.009-0.003c0.157-0.062 0.306-0.094 0.45-0.094 0.097 0 0.186 0.012 0.267 0.037s0.15 0.054 0.206 0.085c0.072 0.036 0.134 0.082 0.187 0.136l0 0c0.034 0.038 0.052 0.080 0.052 0.126-0 0.049-0.020 0.094-0.052 0.126l0-0c-0.030 0.032-0.073 0.052-0.121 0.052-0 0-0.001 0-0.001 0h0c-0.049-0.002-0.093-0.021-0.126-0.052l0 0c-0.009-0.007-0.026-0.020-0.043-0.032l-0.009-0.006c-0.054-0.048-0.12-0.084-0.194-0.103l-0.003-0.001c-0.044-0.012-0.094-0.019-0.146-0.019-0.005 0-0.010 0-0.014 0h0.001c-0.093 0-0.196 0.022-0.309 0.066-0.122 0.046-0.226 0.113-0.314 0.197l0-0c-0.097 0.090-0.178 0.208-0.244 0.352-0.062 0.141-0.099 0.305-0.099 0.477 0 0.012 0 0.023 0.001 0.035l-0-0.002c0 0.15 0.032 0.272 0.098 0.366 0.066 0.090 0.167 0.136 0.304 0.136 0.076-0.002 0.147-0.022 0.209-0.057l-0.002 0.001c0.085-0.045 0.156-0.103 0.215-0.173l0.001-0.001c0.068-0.078 0.128-0.176 0.178-0.296 0.054-0.123 0.093-0.265 0.111-0.413l0.001-0.007c0.006-0.044 0.029-0.082 0.061-0.108l0-0c0.031-0.029 0.073-0.047 0.12-0.047 0.001 0 0.001 0 0.002 0h-0c0.053 0 0.094 0.019 0.122 0.056 0.032 0.038 0.047 0.080 0.047 0.127l-0.005 0.145c-0.003 0.091-0.006 0.213-0.010 0.366l-0.014 0.534-0.010 0.638zM68.778 26.286c-0.147 0.203-0.28 0.424-0.398 0.662-0.1 0.196-0.203 0.435-0.291 0.682l-0.014 0.044c-0.085 0.244-0.15 0.48-0.197 0.708-0.039 0.185-0.063 0.398-0.066 0.616l-0 0.002c0 0.116 0.009 0.208 0.028 0.277 0.017 0.061 0.043 0.114 0.076 0.161l-0.001-0.002c0.032 0.038 0.064 0.062 0.099 0.075 0.037 0.012 0.072 0.018 0.103 0.018 0.101-0 0.191-0.045 0.252-0.116l0-0c0.077-0.089 0.139-0.193 0.18-0.308l0.002-0.007c0.050-0.128 0.091-0.277 0.122-0.446s0.054-0.344 0.070-0.525c0.016-0.178 0.026-0.356 0.032-0.534 0.007-0.178 0.010-0.342 0.010-0.492v-0.403c0-0.134-0.002-0.272-0.009-0.413zM71.126 21.12c0 0.002 0 0.004 0 0.006 0 0.117-0.048 0.223-0.126 0.298l-0 0c-0.074 0.076-0.177 0.122-0.291 0.122-0.003 0-0.006-0-0.009-0h0c-0.002 0-0.004 0-0.006 0-0.116 0-0.222-0.047-0.298-0.122l0 0c-0.076-0.077-0.122-0.182-0.122-0.298 0-0.002 0-0.004 0-0.006v0c0-0.060 0.011-0.114 0.032-0.165 0.022-0.053 0.052-0.098 0.090-0.136l-0 0c0.040-0.040 0.086-0.072 0.136-0.094s0.106-0.033 0.166-0.033 0.117 0.012 0.169 0.034l-0.003-0.001c0.053 0.022 0.099 0.054 0.136 0.093l0 0c0.078 0.074 0.126 0.178 0.126 0.294 0 0.002 0 0.004-0 0.006v-0zM70.367 23.867c0-0.45 0.028-0.898 0.084-1.346 0.006-0.044 0.026-0.083 0.056-0.112l0-0c0.032-0.032 0.077-0.052 0.126-0.052 0.002 0 0.004 0 0.007 0h-0c0.046 0 0.086 0.019 0.117 0.056 0.032 0.035 0.047 0.075 0.047 0.122 0 0.018-0.005 0.075-0.014 0.168-0.006 0.094-0.016 0.207-0.028 0.338l-0.028 0.412c-0.006 0.144-0.010 0.277-0.010 0.398 0 0.166 0.016 0.3 0.047 0.403 0.028 0.090 0.072 0.168 0.127 0.236l-0.001-0.001c0.044 0.049 0.099 0.088 0.161 0.111l0.003 0.001c0.050 0.017 0.108 0.028 0.168 0.029h0c0.088 0 0.178-0.031 0.272-0.094 0.109-0.076 0.202-0.163 0.284-0.26l0.002-0.002c0.1-0.112 0.2-0.247 0.3-0.403 0.1-0.16 0.198-0.336 0.296-0.53 0.014-0.030 0.037-0.054 0.065-0.070l0.001-0c0.026-0.018 0.058-0.028 0.092-0.028 0.001 0 0.001 0 0.002 0h-0c0.050 0 0.090 0.018 0.122 0.056 0.031 0.031 0.050 0.074 0.051 0.121v0c0 0.032-0.006 0.058-0.018 0.080-0.038 0.072-0.084 0.16-0.141 0.262-0.136 0.246-0.279 0.458-0.438 0.656l0.007-0.009c-0.085 0.106-0.174 0.201-0.27 0.289l-0.002 0.002c-0.088 0.078-0.188 0.147-0.296 0.203l-0.008 0.004c-0.098 0.051-0.214 0.081-0.338 0.081-0.13 0-0.253-0.034-0.36-0.092l0.004 0.002c-0.108-0.061-0.199-0.142-0.27-0.237l-0.002-0.002c-0.072-0.101-0.128-0.218-0.163-0.344l-0.002-0.008c-0.033-0.129-0.051-0.276-0.051-0.428 0-0.004 0-0.008 0-0.012v0.001zM70.864 21.12c0-0 0-0 0-0.001 0-0.044-0.020-0.084-0.051-0.111l-0-0c-0.027-0.032-0.067-0.052-0.112-0.052-0 0-0.001 0-0.001 0h0c-0 0-0 0-0 0-0.045 0-0.085 0.020-0.112 0.052l-0 0c-0.030 0.028-0.048 0.067-0.048 0.111 0 0 0 0.001 0 0.001v-0c0 0.044 0.016 0.082 0.048 0.113 0.030 0.032 0.068 0.047 0.112 0.047s0.082-0.016 0.112-0.047c0.032-0.027 0.052-0.067 0.052-0.112 0-0 0-0 0-0v0zM75.444 23.502c-0.019 0.034-0.052 0.097-0.098 0.187-0.060 0.12-0.121 0.221-0.189 0.318l0.005-0.008c-0.075 0.112-0.166 0.23-0.272 0.352-0.218 0.259-0.498 0.46-0.816 0.581l-0.014 0.005c-0.159 0.062-0.344 0.099-0.537 0.099-0.006 0-0.011-0-0.017-0h0.001c-0.178 0-0.336-0.033-0.474-0.098-0.14-0.064-0.257-0.154-0.351-0.266l-0.001-0.002c-0.095-0.118-0.171-0.257-0.218-0.408l-0.002-0.009c-0.050-0.16-0.075-0.336-0.075-0.53-0-0.004-0-0.008-0-0.012 0-0.183 0.029-0.359 0.083-0.524l-0.003 0.012c0.053-0.166 0.125-0.31 0.216-0.431 0.094-0.122 0.202-0.217 0.323-0.286 0.111-0.067 0.244-0.107 0.387-0.107 0.102 0 0.199 0.020 0.288 0.057l-0.005-0.002c0.082 0.033 0.153 0.081 0.21 0.141l0 0c0.060 0.059 0.105 0.125 0.136 0.197 0.032 0.063 0.051 0.137 0.052 0.216v0c0 0.002 0 0.003 0 0.005 0 0.067-0.010 0.131-0.029 0.191l0.001-0.005c-0.016 0.060-0.038 0.113-0.067 0.162l0.002-0.003c-0.024 0.042-0.054 0.078-0.089 0.108l-0.001 0c-0.030 0.023-0.068 0.037-0.109 0.037-0.049 0-0.093-0.020-0.125-0.052v0c-0.029-0.032-0.046-0.074-0.046-0.121 0-0.026 0.005-0.050 0.015-0.072l-0 0.001 0.037-0.056c0.035-0.050 0.056-0.113 0.056-0.181 0-0.004-0-0.008-0-0.012l0 0.001c0-0.066-0.031-0.126-0.094-0.178-0.058-0.050-0.133-0.080-0.216-0.080-0.005 0-0.009 0-0.014 0l0.001-0c-0.095 0.001-0.182 0.031-0.254 0.081l0.001-0.001c-0.083 0.058-0.151 0.13-0.205 0.213l-0.002 0.003c-0.059 0.087-0.108 0.192-0.146 0.314-0.033 0.111-0.051 0.238-0.051 0.37 0 0.003 0 0.007 0 0.010v-0.001c0 0.128 0.016 0.25 0.046 0.366 0.032 0.116 0.078 0.219 0.141 0.31 0.062 0.088 0.141 0.158 0.234 0.211 0.097 0.053 0.211 0.080 0.342 0.080 0.168 0 0.325-0.030 0.469-0.090 0.144-0.062 0.275-0.141 0.394-0.234s0.224-0.195 0.314-0.304c0.075-0.092 0.151-0.194 0.221-0.3l0.009-0.014c0.079-0.115 0.151-0.246 0.21-0.384l0.006-0.015c0.012-0.030 0.033-0.055 0.059-0.070l0.001-0c0.028-0.018 0.062-0.028 0.099-0.028 0 0 0 0 0 0v0c0.053 0 0.095 0.018 0.126 0.056 0.034 0.038 0.051 0.080 0.051 0.126-0.002 0.028-0.008 0.053-0.019 0.077l0.001-0.001z"></path>
</symbol>
<symbol id="icon-arrow" viewBox="0 0 24 24" fill="none">
	<path d="M19.9201 8.94995L13.4001 15.47C12.6301 16.24 11.3701 16.24 10.6001 15.47L4.08008 8.94995" stroke="currentColor" stroke-width="1.5" stroke-miterlimit="10" stroke-linecap="round" stroke-linejoin="round" />
</symbol>
<symbol id="loupe" viewBox="0 0 32 32">
<path fill="none" stroke="#fff" style="stroke: var(--color1, #fff)" stroke-linejoin="miter" stroke-linecap="butt" stroke-miterlimit="4" stroke-width="4" d="M24.087 13.043c0 6.099-4.944 11.043-11.043 11.043s-11.043-4.944-11.043-11.043c0-6.099 4.944-11.043 11.043-11.043s11.043 4.944 11.043 11.043z"></path>
<path fill="#fff" style="fill: var(--color1, #fff)" d="M28.586 31.414c0.781 0.781 2.047 0.781 2.828 0s0.781-2.047 0-2.828l-2.828 2.828zM22.936 20.108l-1.414-1.414-2.828 2.828 1.414 1.414 2.828-2.828zM31.414 28.586l-8.478-8.478-2.828 2.828 8.478 8.478 2.828-2.828z"></path>
</symbol>
<symbol id="icon-scissors" viewBox="0 0 32 32">
<path d="M21.938 0.138c-0.175 0.125-0.581 0.931-3.069 6.138-1.575 3.3-2.875 6-2.881 6.013-0.012 0.006-1.3-2.656-2.862-5.925-2.081-4.356-2.887-5.975-3.019-6.088-0.206-0.175-0.575-0.2-0.85-0.063-0.287 0.15-0.7 0.65-0.912 1.119-0.55 1.206-0.644 2.781-0.256 4.388 0.206 0.838 0.387 1.287 1.512 3.65 0.813 1.719 0.956 1.969 1.113 2.037 0.313 0.131 0.662-0.088 0.662-0.419 0-0.044-0.463-1.044-1.025-2.231-1.031-2.188-1.262-2.769-1.444-3.644-0.125-0.631-0.125-1.9 0-2.5 0.144-0.675 0.569-1.538 0.694-1.413 0.081 0.081 8.213 17.125 8.188 17.163-0.044 0.069-2.281 1.169-2.306 1.137-0.019-0.019-0.75-1.55-1.637-3.406-0.881-1.856-1.65-3.425-1.7-3.488-0.238-0.262-0.769-0.044-0.769 0.313 0 0.1 0.438 1.088 0.975 2.206 1.294 2.706 1.181 2.369 0.931 2.731-0.113 0.163-0.319 0.363-0.463 0.444-0.256 0.144-0.275 0.144-1.588 0.1-1.094-0.031-1.431-0.019-1.912 0.063-1.519 0.269-2.844 0.95-4 2.069-1.056 1.025-1.825 2.225-2.281 3.6-0.319 0.956-0.431 1.681-0.4 2.619 0.025 0.681 0.056 0.85 0.225 1.306 0.7 1.863 2.406 3.288 4.469 3.725 0.625 0.137 1.669 0.119 2.269-0.031 1.475-0.375 2.669-1.406 3.512-3.050 0.206-0.406 0.931-1.9 1.606-3.325 0.681-1.425 1.238-2.6 1.25-2.613 0.006-0.006 0.681 1.387 1.494 3.094 0.819 1.712 1.613 3.313 1.762 3.563 0.556 0.894 1.5 1.756 2.35 2.137 0.719 0.331 1.125 0.406 2.050 0.406 0.931-0.006 1.425-0.106 2.256-0.462 1.625-0.694 3.031-2.275 3.4-3.825 0.256-1.1 0.025-2.762-0.594-4.181-1.125-2.6-3.413-4.488-5.981-4.938-0.506-0.094-1.688-0.106-2.55-0.038-0.587 0.050-0.644 0.044-0.906-0.094-0.288-0.15-0.663-0.575-0.725-0.825-0.025-0.1 0.269-0.775 1-2.344 0.569-1.213 1.038-2.269 1.038-2.344 0-0.356-0.55-0.544-0.794-0.275-0.069 0.081-0.5 0.95-0.962 1.938-0.462 0.994-0.85 1.8-0.869 1.8-0.019-0.006-0.35-0.675-0.738-1.488l-0.706-1.481 2.956-6.169c1.625-3.4 2.969-6.175 2.988-6.175 0.087 0 0.444 0.7 0.575 1.125 0.125 0.413 0.144 0.594 0.144 1.563 0 1.662-0.087 1.944-1.631 5.175-0.569 1.188-0.962 2.094-0.962 2.206 0 0.369 0.456 0.569 0.738 0.319 0.144-0.125 2.113-4.256 2.356-4.95 0.788-2.225 0.606-4.688-0.45-5.987-0.244-0.3-0.613-0.512-0.881-0.512-0.1 0-0.275 0.063-0.387 0.138zM14.644 19.944c0.356 0.738 0.681 1.425 0.725 1.531 0.075 0.188 0.025 0.306-1.556 3.625-0.9 1.887-1.769 3.625-1.925 3.869-0.631 0.95-1.575 1.65-2.519 1.875-0.569 0.131-1.494 0.119-2.069-0.025-1.625-0.419-3.006-1.619-3.569-3.106-0.2-0.531-0.194-1.938 0.006-2.7 0.794-2.95 2.969-5.1 5.675-5.613 0.469-0.087 0.775-0.094 1.9-0.056 1.281 0.038 1.363 0.038 1.7-0.094 0.2-0.075 0.494-0.256 0.656-0.406 0.162-0.144 0.306-0.262 0.319-0.25 0.012 0.006 0.306 0.619 0.656 1.35zM18.831 19.275c0.419 0.212 0.85 0.25 1.813 0.156 1.706-0.163 3.169 0.206 4.519 1.137 1.938 1.337 3.275 3.813 3.275 6.050 0 1.106-0.381 1.95-1.281 2.856-0.669 0.669-1.294 1.063-2.156 1.35-0.531 0.175-0.675 0.194-1.344 0.2-0.85 0.006-1.225-0.081-1.938-0.45-0.519-0.269-1.387-1.106-1.706-1.65-0.225-0.381-4.075-8.412-4.075-8.5 0-0.050 2.419-1.294 2.531-1.294 0.038-0.006 0.2 0.063 0.363 0.144z"></path>
<path d="M9.244 21.156c-1.431 0.35-2.669 1.512-3.612 3.394-0.494 0.988-0.612 1.7-0.412 2.481 0.287 1.094 1.163 1.919 2.325 2.194 1.225 0.288 2.519-0.288 3.344-1.5 0.275-0.4 2.131-4.206 2.237-4.587 0.206-0.75-0.194-1.444-1.012-1.75-0.838-0.313-2.106-0.413-2.869-0.231zM11.188 22.094c0.75 0.175 1.063 0.363 1.063 0.637 0 0.175-1.738 3.831-2.075 4.375-0.3 0.469-0.694 0.831-1.169 1.063-0.294 0.144-0.431 0.175-0.85 0.175-0.425 0-0.556-0.025-0.869-0.181-0.944-0.462-1.412-1.475-1.131-2.444 0.237-0.819 0.95-1.969 1.65-2.656 0.494-0.488 1.025-0.806 1.606-0.969 0.412-0.113 1.281-0.113 1.775 0z"></path>
<path d="M21.156 21.163c-0.556 0.081-1.313 0.313-1.606 0.488-0.181 0.106-0.413 0.319-0.519 0.462-0.169 0.244-0.188 0.319-0.188 0.719l0.006 0.45 0.988 2.063c0.994 2.069 1.212 2.462 1.631 2.95 0.275 0.319 0.956 0.781 1.375 0.925 0.419 0.15 1.206 0.194 1.65 0.094 0.844-0.188 1.656-0.813 2.031-1.575 0.538-1.069 0.444-2.044-0.337-3.45-0.906-1.637-2.044-2.663-3.344-3.006-0.381-0.1-1.344-0.169-1.688-0.119zM22.756 22.244c1.038 0.325 2.012 1.3 2.744 2.756 0.163 0.325 0.331 0.744 0.375 0.931 0.3 1.269-0.7 2.506-2.031 2.506-0.25 0-0.531-0.050-0.75-0.131-0.387-0.144-0.931-0.606-1.231-1.044-0.275-0.4-2.113-4.256-2.113-4.438 0-0.294 0.481-0.55 1.344-0.7 0.45-0.081 1.188-0.025 1.663 0.119z"></path>
<path d="M15.6 16.756c-0.338 0.262-0.15 0.869 0.269 0.869 0.456 0 0.644-0.55 0.294-0.85-0.206-0.181-0.344-0.188-0.563-0.019z"></path>
</symbol>
<symbol id="icon-stone" viewBox="0 0 32 32">
<path d="M16.625 4.2c-0.188 0.069-0.456 0.206-0.594 0.306-0.4 0.275-4.688 4.619-4.863 4.931-0.206 0.356-0.356 0.931-0.356 1.356 0 0.262-0.019 0.331-0.1 0.331-0.144 0-8.075 1.856-8.4 1.969-0.594 0.2-1.194 0.8-1.425 1.419-0.069 0.181-0.3 1.369-0.519 2.631-0.362 2.119-0.388 2.319-0.313 2.594 0.1 0.381 0.35 0.694 0.694 0.869 0.263 0.137 0.35 0.144 1.544 0.144 1.219 0 1.269-0.006 1.394-0.137 0.138-0.15 0.163-0.363 0.063-0.55-0.106-0.2-0.419-0.25-1.506-0.25-0.975 0-1.069-0.012-1.181-0.125-0.069-0.069-0.125-0.169-0.125-0.225 0-0.281 0.775-4.519 0.856-4.681 0.181-0.35 0.338-0.531 0.613-0.694l0.275-0.156 2.362 1.006c1.4 0.606 2.537 1.050 2.8 1.106l0.45 0.1 0.331 0.6c0.188 0.325 0.387 0.644 0.45 0.706 0.144 0.144 0.5 0.144 0.625 0 0.2-0.225 0.194-0.375-0.037-0.788-0.125-0.219-0.225-0.419-0.225-0.438 0-0.044 2.219-0.038 4.656 0.019l1.75 0.038 0.144 0.281c0.131 0.262 0.137 0.35 0.137 1.663 0 1.25-0.012 1.387-0.113 1.481-0.106 0.094-0.606 0.106-5.381 0.119l-5.269 0.019-0.15 0.175c-0.181 0.212-0.188 0.35-0.019 0.569l0.125 0.163h5.375c5.194 0 5.381-0.006 5.612-0.119 0.306-0.163 0.606-0.506 0.694-0.8 0.050-0.156 0.063-0.756 0.050-1.738l-0.019-1.5-0.2-0.425c-0.181-0.381-0.413-0.637-2.156-2.406-1.075-1.088-2.050-2.056-2.162-2.15-0.113-0.088-0.331-0.219-0.488-0.281l-0.287-0.113 0.025-0.469c0.019-0.325 0.075-0.556 0.175-0.75 0.081-0.169 0.588-0.731 1.244-1.394 1.806-1.831 1.719-1.794 4.125-1.794 1.475 0 1.731 0.013 2.063 0.119 0.488 0.15 0.956 0.45 1.219 0.781 0.113 0.138 0.869 1.35 1.675 2.694l1.475 2.438 0.106 0.863c0.1 0.775 0.125 0.869 0.269 0.981 0.212 0.169 0.425 0.156 0.619-0.037 0.131-0.137 0.15-0.194 0.119-0.419-0.106-0.794-0.113-0.919-0.044-0.919 0.044 0 0.469 0.1 0.944 0.219 0.656 0.162 0.906 0.206 1.025 0.156 0.3-0.113 0.381-0.512 0.15-0.738-0.1-0.088-0.5-0.219-1.3-0.419l-1.156-0.294-1.5-2.475c-1.669-2.769-1.938-3.106-2.731-3.494-0.7-0.344-1.025-0.394-2.769-0.394h-1.556l0.275-0.281c0.156-0.156 0.419-0.356 0.587-0.438l0.313-0.156h4.706c5.1 0 4.9-0.013 5.363 0.338 0.106 0.081 0.275 0.3 0.375 0.481l0.188 0.338 0.063 3.063 0.175 0.294c0.113 0.188 0.644 0.725 1.481 1.494 1.581 1.444 1.625 1.512 1.625 2.444v0.613l-0.306-0.15c-0.425-0.219-1.981-0.606-2.156-0.537-0.2 0.075-0.306 0.231-0.306 0.438 0 0.319 0.15 0.412 1.038 0.625 0.944 0.238 1.063 0.287 1.337 0.575 0.313 0.325 0.394 0.588 0.394 1.294 0 0.512-0.019 0.644-0.119 0.762l-0.119 0.15-4.406 0.038-0.706-0.288c-0.587-0.231-0.781-0.281-1.119-0.281-0.45 0-0.944 0.156-1.281 0.406l-0.212 0.156h-2.256c-2.188 0-2.269 0.006-2.375 0.125-0.156 0.175-0.144 0.475 0.025 0.644 0.131 0.137 0.175 0.137 2.038 0.156l1.9 0.019-0.063 0.169c-0.075 0.194-0.094 1.1-0.031 1.313 0.044 0.137 0.044 0.137-0.7 0.137-0.837 0-1.087 0.063-1.194 0.288-0.1 0.219-0.087 0.294 0.063 0.488l0.125 0.163h7.031l0.275-0.137c0.163-0.087 0.356-0.256 0.469-0.413 0.175-0.256 0.188-0.313 0.188-0.813 0-0.475-0.019-0.581-0.169-0.85-0.1-0.169-0.175-0.313-0.175-0.319 0-0.012 0.613-0.031 1.363-0.044 1.525-0.025 1.688-0.069 2.063-0.519 0.306-0.375 0.325-0.538 0.325-2.769 0-1.881-0.012-2.1-0.125-2.463-0.069-0.225-0.206-0.519-0.306-0.656s-0.756-0.781-1.462-1.419c-0.7-0.644-1.306-1.238-1.35-1.325-0.044-0.1-0.069-0.594-0.069-1.356 0-0.813-0.031-1.337-0.094-1.631-0.163-0.781-0.663-1.412-1.4-1.769l-0.35-0.175-4.938-0.013c-4.887-0.013-4.944-0.013-5.281 0.119zM11.65 12.188c0.156 0.075 0.831 0.7 1.756 1.625l1.5 1.5h-0.625c-1.887-0.006-6.075-0.131-6.3-0.194-0.338-0.088-3.681-1.506-3.644-1.544 0.019-0.012 1.431-0.356 3.144-0.762 3.362-0.794 3.712-0.85 4.169-0.625zM26.1 18.137c1.15 0.462 1.306 0.538 1.438 0.738 0.1 0.144 0.15 0.306 0.15 0.481 0 0.469 0.063 0.456-2.219 0.456h-2.031l-0.1-0.156c-0.075-0.113-0.1-0.288-0.1-0.6 0.006-0.538 0.188-0.894 0.594-1.169 0.563-0.387 0.706-0.375 2.269 0.25z"></path>
<path d="M18.625 21.544c-0.050 0.019-1.156 0.456-2.456 0.975-2.581 1.025-2.731 1.106-3.162 1.781-0.45 0.7-0.594 1.675-0.363 2.369 0.144 0.406 0.531 0.85 0.944 1.069l0.319 0.169 12.487 0.031 0.15-0.137c0.256-0.238 0.163-0.613-0.175-0.731-0.131-0.044-0.85-0.069-2.012-0.069-1.7 0-1.806-0.006-1.762-0.113 0.2-0.456 0.238-0.681 0.269-1.356 0.012-0.456 0-0.894-0.050-1.113-0.319-1.538-2.038-2.931-3.606-2.913-0.269 0-0.531 0.019-0.581 0.038zM20.125 22.637c0.781 0.363 1.512 1.113 1.719 1.781 0.163 0.512 0.113 1.631-0.087 2.038-0.281 0.581-0.038 0.55-4.113 0.531-3.519-0.019-3.575-0.019-3.75-0.15-0.488-0.363-0.569-1.075-0.219-1.794 0.119-0.238 0.306-0.494 0.431-0.6 0.15-0.125 1.031-0.512 2.487-1.1l2.25-0.906 0.469 0.019c0.337 0.012 0.569 0.069 0.813 0.181z"></path>
<path d="M26.019 23.188c-0.288 0.119-0.356 0.519-0.125 0.738 0.419 0.394 1.050-0.169 0.688-0.6-0.131-0.156-0.375-0.219-0.563-0.137z"></path>
</symbol>
<symbol id="icon-paper" viewBox="0 0 32 32">
<path d="M11.856 0.138c-0.131 0.131-0.156 0.3-0.35 2.175-0.113 1.119-0.219 2.044-0.231 2.056-0.006 0.006-2.362 0.338-5.231 0.725s-5.275 0.737-5.35 0.775c-0.069 0.037-0.15 0.144-0.169 0.237-0.044 0.169 3.131 23.863 3.231 24.131 0.106 0.281 0.263 0.288 1.6 0.113 0.681-0.094 1.313-0.181 1.412-0.2l0.169-0.038v0.813c0 0.806 0 0.819 0.162 0.944 0.169 0.131 0.169 0.131 7.862 0.131h7.694l2.075-2.081 2.081-2.075v-0.606c0-0.331 0.019-0.619 0.050-0.631 0.025-0.012 0.444 0.019 0.931 0.069 0.819 0.087 0.9 0.087 1.044-0.012 0.2-0.131 0.194-0.094 0.375-1.869 0.113-1.113 0.137-1.531 0.087-1.637-0.125-0.281-0.581-0.325-0.788-0.081-0.063 0.075-0.325 2.144-0.325 2.563 0 0.119-0.025 0.125-0.544 0.081-0.306-0.019-0.613-0.056-0.688-0.075l-0.144-0.031v-18.294l-0.163-0.125c-0.163-0.131-0.225-0.131-3.063-0.131-1.594 0-2.9-0.019-2.9-0.050-0.006-0.025-0.113-0.831-0.244-1.794-0.219-1.563-0.256-1.756-0.381-1.856-0.075-0.063-0.206-0.112-0.281-0.112-0.081 0-1.8 0.225-3.819 0.5s-3.681 0.487-3.694 0.481c-0.025-0.025 0.3-3.188 0.331-3.225 0.012-0.012 4.006 0.394 8.881 0.894 4.875 0.506 8.9 0.912 8.944 0.912s0.075 0.075 0.075 0.181c0 0.1-0.406 4.125-0.906 8.95s-0.906 8.831-0.906 8.912c0 0.481 0.794 0.538 0.906 0.063 0.069-0.281 1.913-18.331 1.894-18.538-0.038-0.425 0.563-0.344-9.831-1.406-5.225-0.537-9.537-0.975-9.581-0.975s-0.144 0.063-0.219 0.138zM19.375 4.306c0 0.075 0.3 2.294 0.344 2.55l0.038 0.206h-6.244c-6.225 0-6.244 0-6.412 0.131l-0.162 0.125v1.994c0 1.975 0 1.994 0.138 2.125 0.188 0.169 0.456 0.162 0.644-0.031l0.156-0.15v-3.256h18v19.119l-3.637 0.038-0.119 0.15c-0.113 0.137-0.119 0.269-0.119 1.95v1.806h-14.125v-8.787c0-5.606-0.025-8.825-0.063-8.9-0.075-0.137-0.4-0.262-0.55-0.206-0.056 0.019-0.156 0.081-0.213 0.131-0.106 0.088-0.112 0.55-0.112 7.981v7.894l-0.206 0.038c-0.469 0.081-2.125 0.294-2.144 0.269-0.025-0.019-3.087-22.6-3.087-22.75 0-0.063 0.163-0.106 0.55-0.156 0.775-0.094 15.744-2.125 16.419-2.225 0.706-0.106 0.906-0.112 0.906-0.044zM25.188 28.113c0 0.025-0.506 0.55-1.125 1.169l-1.125 1.125v-2.344h1.125c0.619 0 1.125 0.019 1.125 0.050z"></path>
</symbol>
<symbol id="close" viewBox="0 0 20 20">
<path d="M10 8.586l-7.071-7.071-1.414 1.414 7.071 7.071-7.071 7.071 1.414 1.414 7.071-7.071 7.071 7.071 1.414-1.414-7.071-7.071 7.071-7.071-1.414-1.414-7.071 7.071z"></path>
</symbol>
</defs>
</svg>

